<?xml version="1.0" standalone="no"?>
<!DOCTYPE svg PUBLIC "-//W3C//DTD SVG 20010904//EN"
 "http://www.w3.org/TR/2001/REC-SVG-20010904/DTD/svg10.dtd">
<svg version="1.0" xmlns="http://www.w3.org/2000/svg"
 width="260.000000pt" height="260.000000pt" viewBox="0 0 260.000000 260.000000"
 preserveAspectRatio="xMidYMid meet">
<metadata>
Created by potrace 1.11, written by Peter Selinger 2001-2013
</metadata>
<g transform="translate(0.000000,260.000000) scale(0.100000,-0.100000)"
fill="#000000" stroke="none">
<path d="M165 2576 c-61 -28 -107 -71 -137 -128 l-23 -43 0 -1105 0 -1105 22
-42 c33 -61 88 -110 150 -133 53 -20 74 -20 1123 -20 1053 0 1070 0 1124 20
68 26 126 83 155 151 l21 52 -2 1091 -3 1091 -22 41 c-28 53 -74 99 -127 127
l-41 22 -1095 2 -1095 2 -50 -23z m1315 -156 c0 -20 -5 -30 -15 -30 -12 0 -15
-16 -15 -83 l0 -84 58 -12 c262 -58 479 -269 548 -535 21 -80 25 -230 8 -315
-54 -285 -282 -517 -566 -577 -73 -16 -203 -21 -256 -10 -15 3 -42 8 -61 11
-48 8 -168 59 -228 98 -150 95 -268 259 -314 434 -19 74 -28 245 -16 298 3 11
8 34 12 50 61 264 291 493 547 545 l56 11 4 62 c4 81 0 107 -18 107 -9 0 -14
11 -14 30 l0 30 135 0 135 0 0 -30z m189 -1960 c55 -124 101 -228 101 -231 0
-3 -15 -6 -32 -5 -30 1 -36 7 -57 54 l-25 52 -95 0 -96 0 -25 -53 c-22 -46
-29 -52 -57 -53 -18 -1 -33 0 -33 3 0 4 13 34 90 198 104 224 123 265 125 263
2 -2 48 -104 104 -228z m-1539 194 c4 -5 34 -73 65 -152 l57 -143 45 113 c58
146 74 182 86 190 11 7 49 5 57 -3 3 -3 -57 -157 -105 -264 -8 -16 -29 -68
-48 -114 -29 -73 -36 -82 -45 -65 -11 20 -182 441 -182 447 0 8 61 0 70 -9z
m421 -4 c41 -23 6 -86 -38 -69 -25 9 -31 47 -11 67 15 15 24 15 49 2z m5 -416
c-3 -7 -17 -11 -33 -10 l-28 3 0 134 0 134 30 5 30 5 3 -129 c1 -72 0 -136 -2
-142z m182 265 c24 10 82 7 82 -5 0 -2 -5 -15 -12 -29 -9 -21 -16 -25 -38 -20
-47 10 -63 -21 -64 -125 -1 -92 -5 -101 -42 -96 -17 3 -19 15 -21 139 -2 133
-2 136 20 139 12 2 28 0 34 -5 8 -6 24 -5 41 2z m321 -9 c102 -51 99 -213 -5
-256 -71 -30 -151 -8 -190 52 -27 40 -25 121 3 160 44 62 123 80 192 44z m826
-10 c1 0 20 7 40 16 53 22 96 11 134 -32 17 -19 32 -42 33 -52 8 -94 -11 -151
-62 -177 -37 -19 -90 -19 -116 0 -10 8 -22 15 -26 15 -5 0 -8 -40 -8 -88 l0
-89 -32 0 -33 0 0 211 0 211 30 5 c19 3 31 0 33 -7 2 -7 5 -13 7 -13z m347 7
c4 -7 12 -6 23 3 9 7 39 14 66 14 46 1 54 -3 84 -36 45 -49 55 -108 27 -171
-13 -29 -31 -51 -51 -61 -38 -20 -105 -21 -121 -1 -24 29 -30 14 -30 -73 l0
-87 -30 -1 c-21 -1 -30 3 -31 15 -5 77 -3 390 3 403 8 17 47 14 60 -5z"/>
<path d="M1531 475 c-17 -37 -29 -71 -25 -74 11 -12 114 -8 114 4 0 7 -13 40
-28 75 l-29 63 -32 -68z"/>
<path d="M935 425 c-32 -31 -34 -91 -5 -123 51 -54 140 -13 140 64 0 45 -37
84 -80 84 -19 0 -40 -9 -55 -25z"/>
<path d="M1905 425 c-28 -27 -34 -88 -11 -117 30 -40 92 -39 122 0 8 9 14 35
14 58 0 75 -74 111 -125 59z"/>
<path d="M2251 424 c-24 -30 -27 -90 -7 -116 30 -40 92 -39 122 0 39 51 -1
142 -61 142 -24 0 -39 -7 -54 -26z"/>
</g>
</svg>
